# xmcd
#
# Track frame offsets:
# 150
# 14889
# 30853
# 50088
# 66049
# 85418
# 100393
# 116023
# 134260
# 156249
# 172996
# 191965
# 208275
# 235892
#
# Disc length: 3416 seconds
#
#
# Revision: 0
# Processed by: cddbd v1.5.1PL2 Copyright (c) Steve Scherf et al.
# Submitted via: FreeRIP 2.944 
#
DISCID=cb0d560e
DTITLE=James Cotton - Deep in the Blues
DYEAR=1995
DGENRE=Blues
TTITLE0=Down at your buryin'
TTITLE1=All walks of life
TTITLE2=You got my nose open
TTITLE3=Dealin' with the devil
TTITLE4=Strange things happen
TTITLE5=Country boy
TTITLE6=Vineyard blues
TTITLE7=Worried life blues
TTITLE8=Two trains runnin'
TTITLE9=Ozark mountain railroad
TTITLE10=Sad letter
TTITLE11=Play with your poodle
TTITLE12=Blues in my sleep
TTITLE13=everybody's fishin'
EXTD=
EXTT0=
EXTT1=
EXTT2=
EXTT3=
EXTT4=
EXTT5=
EXTT6=
EXTT7=
EXTT8=
EXTT9=
EXTT10=
EXTT11=
EXTT12=
EXTT13=
PLAYORDER=
